# xmcd
#
# Track frame offsets:
#	150
#	7602
#	21066
#	74522
#	83977
#	87410
#	103744
#	144997
#	156008
#	173771
#
# Disc length: 2581 seconds
#
# Revision: 0
# Processed by: cddbd v1.5.2PL0 Copyright (c) Steve Scherf et al.
# Submitted via: EasyCDDAExtractor 10.0.2.1
#
DISCID=710a130a
DTITLE=Frank Zappa - Scandinavium Gothenburg 21-01-77 Disc 1
DYEAR=1977
DGENRE=Progressive Rock
TTITLE0=Intro
TTITLE1=Peaches En Regalia
TTITLE2=The Torture Never Stops
TTITLE3=Big Leg Emma
TTITLE4=I'm The Slime
TTITLE5=A Pound For A Brown On The Bus
TTITLE6=Jones Crusher
TTITLE7=My Guitar Wants To Kill Your Mama
TTITLE8=Cruising For Burgers
TTITLE9=Broken Hearts Are For Assholes
EXTD=
EXTT0=
EXTT1=
EXTT2=
EXTT3=
EXTT4=
EXTT5=
EXTT6=
EXTT7=
EXTT8=
EXTT9=
PLAYORDER=
